<mxfile host="Electron" agent="Mozilla/5.0 (Windows NT 10.0; Win64; x64) AppleWebKit/537.36 (KHTML, like Gecko) draw.io/25.0.2 Chrome/128.0.6613.186 Electron/32.2.5 Safari/537.36" version="25.0.2">
  <diagram name="Page-1" id="UwvoS1QnG0ZFc5O_BDgw">
    <mxGraphModel dx="1252" dy="571" grid="1" gridSize="10" guides="1" tooltips="1" connect="1" arrows="1" fold="1" page="1" pageScale="1" pageWidth="827" pageHeight="1169" math="0" shadow="0">
      <root>
        <mxCell id="0" />
        <mxCell id="1" parent="0" />
        <mxCell id="t9-zn9CQGEQQ7r7-9aMz-8" value="i = 1" style="rounded=0;whiteSpace=wrap;html=1;strokeColor=default;strokeWidth=2;align=center;verticalAlign=middle;fontFamily=Helvetica;fontSize=12;fontColor=default;fillColor=default;movable=0;resizable=0;rotatable=0;deletable=0;editable=0;locked=1;connectable=0;" parent="1" vertex="1">
          <mxGeometry x="296" y="440" width="236" height="60" as="geometry" />
        </mxCell>
        <mxCell id="t9-zn9CQGEQQ7r7-9aMz-4" value="" style="edgeStyle=orthogonalEdgeStyle;rounded=0;orthogonalLoop=1;jettySize=auto;html=1;fontFamily=Helvetica;fontSize=12;fontColor=default;" parent="1" source="t9-zn9CQGEQQ7r7-9aMz-2" target="t9-zn9CQGEQQ7r7-9aMz-3" edge="1">
          <mxGeometry relative="1" as="geometry" />
        </mxCell>
        <mxCell id="t9-zn9CQGEQQ7r7-9aMz-2" value="เริ่ม" style="strokeWidth=2;html=1;shape=mxgraph.flowchart.terminator;whiteSpace=wrap;movable=0;resizable=0;rotatable=0;deletable=0;editable=0;locked=1;connectable=0;" parent="1" vertex="1">
          <mxGeometry x="364" y="40" width="100" height="60" as="geometry" />
        </mxCell>
        <mxCell id="t9-zn9CQGEQQ7r7-9aMz-7" value="" style="edgeStyle=orthogonalEdgeStyle;rounded=0;orthogonalLoop=1;jettySize=auto;html=1;fontFamily=Helvetica;fontSize=12;fontColor=default;" parent="1" source="t9-zn9CQGEQQ7r7-9aMz-3" target="t9-zn9CQGEQQ7r7-9aMz-6" edge="1">
          <mxGeometry relative="1" as="geometry" />
        </mxCell>
        <mxCell id="t9-zn9CQGEQQ7r7-9aMz-3" value="&lt;p style=&quot;margin: 0px; font-style: normal; font-variant-caps: normal; font-stretch: normal; font-size: 17px; line-height: normal; font-family: &amp;quot;.SF UI&amp;quot;; font-size-adjust: none; font-kerning: auto; font-variant-alternates: normal; font-variant-ligatures: normal; font-variant-numeric: normal; font-variant-east-asian: normal; font-variant-position: normal; font-feature-settings: normal; font-optical-sizing: auto; font-variation-settings: normal; -webkit-text-stroke-width: 0px; -webkit-text-stroke-color: rgb(255, 255, 255);&quot;&gt;&lt;span style=&quot;font-family: &amp;quot;.SFUI-Regular&amp;quot;; font-kerning: none;&quot;&gt;รับค่าจำนวน &lt;/span&gt;&lt;span style=&quot;font-family: &amp;quot;Times New Roman&amp;quot;; font-kerning: none;&quot;&gt;num&lt;/span&gt;&lt;span style=&quot;font-family: &amp;quot;.SFUI-Regular&amp;quot;; font-kerning: none;&quot;&gt; (จำนวนเทอม) จากผู้ใช้&lt;/span&gt;&lt;/p&gt;&lt;div&gt;&lt;span style=&quot;font-family: &amp;quot;.SFUI-Regular&amp;quot;; font-kerning: none;&quot;&gt;&lt;br&gt;&lt;/span&gt;&lt;/div&gt;" style="shape=parallelogram;perimeter=parallelogramPerimeter;whiteSpace=wrap;html=1;fixedSize=1;strokeColor=default;strokeWidth=2;align=center;verticalAlign=middle;fontFamily=Helvetica;fontSize=12;fontColor=default;fillColor=default;movable=0;resizable=0;rotatable=0;deletable=0;editable=0;locked=1;connectable=0;" parent="1" vertex="1">
          <mxGeometry x="244" y="150" width="340" height="90" as="geometry" />
        </mxCell>
        <mxCell id="t9-zn9CQGEQQ7r7-9aMz-9" value="" style="edgeStyle=orthogonalEdgeStyle;rounded=0;orthogonalLoop=1;jettySize=auto;html=1;fontFamily=Helvetica;fontSize=12;fontColor=default;" parent="1" source="t9-zn9CQGEQQ7r7-9aMz-6" target="t9-zn9CQGEQQ7r7-9aMz-8" edge="1">
          <mxGeometry relative="1" as="geometry" />
        </mxCell>
        <mxCell id="t9-zn9CQGEQQ7r7-9aMz-6" value="กำหนดค่าเริ่มต้นให้ sum = 0 และ term = 0" style="rounded=0;whiteSpace=wrap;html=1;strokeColor=default;strokeWidth=2;align=center;verticalAlign=middle;fontFamily=Helvetica;fontSize=12;fontColor=default;fillColor=default;movable=0;resizable=0;rotatable=0;deletable=0;editable=0;locked=1;connectable=0;" parent="1" vertex="1">
          <mxGeometry x="296" y="320" width="236" height="60" as="geometry" />
        </mxCell>
        <mxCell id="t9-zn9CQGEQQ7r7-9aMz-13" value="" style="edgeStyle=orthogonalEdgeStyle;rounded=0;orthogonalLoop=1;jettySize=auto;html=1;fontFamily=Helvetica;fontSize=12;fontColor=default;" parent="1" source="t9-zn9CQGEQQ7r7-9aMz-8" target="t9-zn9CQGEQQ7r7-9aMz-10" edge="1">
          <mxGeometry relative="1" as="geometry" />
        </mxCell>
        <mxCell id="t9-zn9CQGEQQ7r7-9aMz-15" value="" style="edgeStyle=orthogonalEdgeStyle;rounded=0;orthogonalLoop=1;jettySize=auto;html=1;fontFamily=Helvetica;fontSize=12;fontColor=default;" parent="1" source="t9-zn9CQGEQQ7r7-9aMz-10" target="t9-zn9CQGEQQ7r7-9aMz-14" edge="1">
          <mxGeometry relative="1" as="geometry" />
        </mxCell>
        <mxCell id="t9-zn9CQGEQQ7r7-9aMz-10" value="ถ้า i น้อยกว่า num" style="rhombus;whiteSpace=wrap;html=1;strokeColor=default;strokeWidth=2;align=center;verticalAlign=middle;fontFamily=Helvetica;fontSize=12;fontColor=default;fillColor=default;movable=0;resizable=0;rotatable=0;deletable=0;editable=0;locked=1;connectable=0;" parent="1" vertex="1">
          <mxGeometry x="299.5" y="630" width="229" height="110" as="geometry" />
        </mxCell>
        <mxCell id="t9-zn9CQGEQQ7r7-9aMz-17" value="" style="edgeStyle=orthogonalEdgeStyle;rounded=0;orthogonalLoop=1;jettySize=auto;html=1;fontFamily=Helvetica;fontSize=12;fontColor=default;" parent="1" source="t9-zn9CQGEQQ7r7-9aMz-14" target="t9-zn9CQGEQQ7r7-9aMz-16" edge="1">
          <mxGeometry relative="1" as="geometry" />
        </mxCell>
        <mxCell id="t9-zn9CQGEQQ7r7-9aMz-14" value="คำนวณค่า term = term * 10 + 9" style="rounded=0;whiteSpace=wrap;html=1;strokeColor=default;strokeWidth=2;align=center;verticalAlign=middle;fontFamily=Helvetica;fontSize=12;fontColor=default;fillColor=default;movable=0;resizable=0;rotatable=0;deletable=0;editable=0;locked=1;connectable=0;" parent="1" vertex="1">
          <mxGeometry x="315" y="780" width="198" height="60" as="geometry" />
        </mxCell>
        <mxCell id="t9-zn9CQGEQQ7r7-9aMz-19" value="" style="edgeStyle=orthogonalEdgeStyle;rounded=0;orthogonalLoop=1;jettySize=auto;html=1;fontFamily=Helvetica;fontSize=12;fontColor=default;" parent="1" source="t9-zn9CQGEQQ7r7-9aMz-16" target="t9-zn9CQGEQQ7r7-9aMz-18" edge="1">
          <mxGeometry relative="1" as="geometry" />
        </mxCell>
        <mxCell id="t9-zn9CQGEQQ7r7-9aMz-16" value="sum = sum + teram" style="rounded=0;whiteSpace=wrap;html=1;strokeColor=default;strokeWidth=2;align=center;verticalAlign=middle;fontFamily=Helvetica;fontSize=12;fontColor=default;fillColor=default;" parent="1" vertex="1">
          <mxGeometry x="315" y="900" width="198" height="60" as="geometry" />
        </mxCell>
        <mxCell id="t9-zn9CQGEQQ7r7-9aMz-21" value="" style="edgeStyle=orthogonalEdgeStyle;rounded=0;orthogonalLoop=1;jettySize=auto;html=1;fontFamily=Helvetica;fontSize=12;fontColor=default;" parent="1" source="t9-zn9CQGEQQ7r7-9aMz-18" target="t9-zn9CQGEQQ7r7-9aMz-20" edge="1">
          <mxGeometry relative="1" as="geometry" />
        </mxCell>
        <mxCell id="t9-zn9CQGEQQ7r7-9aMz-18" value="แสดงค่า sum" style="shape=parallelogram;perimeter=parallelogramPerimeter;whiteSpace=wrap;html=1;fixedSize=1;strokeColor=default;strokeWidth=2;align=center;verticalAlign=middle;fontFamily=Helvetica;fontSize=12;fontColor=default;fillColor=default;" parent="1" vertex="1">
          <mxGeometry x="242" y="1010" width="344" height="80" as="geometry" />
        </mxCell>
        <mxCell id="t9-zn9CQGEQQ7r7-9aMz-20" value="จบ" style="strokeWidth=2;html=1;shape=mxgraph.flowchart.terminator;whiteSpace=wrap;strokeColor=default;align=center;verticalAlign=middle;fontFamily=Helvetica;fontSize=12;fontColor=default;fillColor=default;" parent="1" vertex="1">
          <mxGeometry x="322" y="1140" width="184" height="60" as="geometry" />
        </mxCell>
      </root>
    </mxGraphModel>
  </diagram>
</mxfile>
